<svg xmlns="http://www.w3.org/2000/svg" viewBox="0 0 128 128">
  <defs>
    <linearGradient id="bg" x1="0%" y1="0%" x2="100%" y2="100%">
      <stop offset="0%" stop-color="#0a1110" />
      <stop offset="100%" stop-color="#14221f" />
    </linearGradient>
    <linearGradient id="accent" x1="0%" y1="0%" x2="100%" y2="100%">
      <stop offset="0%" stop-color="#d8ff8f" />
      <stop offset="100%" stop-color="#70e3ba" />
    </linearGradient>
    <radialGradient id="glow" cx="50%" cy="45%" r="58%">
      <stop offset="0%" stop-color="#98ffc7" stop-opacity="0.22" />
      <stop offset="100%" stop-color="#98ffc7" stop-opacity="0" />
    </radialGradient>
  </defs>
  <rect width="128" height="128" rx="28" fill="url(#bg)" />
  <rect x="8" y="8" width="112" height="112" rx="22" fill="none" stroke="#8fd4b1" stroke-opacity="0.25" />
  <rect width="128" height="128" rx="28" fill="url(#glow)" />

  <g stroke="#92d5b3" stroke-opacity="0.25" stroke-width="2">
    <path d="M20 40h88M20 64h88M20 88h88" />
    <path d="M40 20v88M64 20v88M88 20v88" />
  </g>

  <path
    d="M64 18 100 39 100 89 64 110 28 89 28 39Z"
    fill="none"
    stroke="url(#accent)"
    stroke-width="5.5"
    stroke-linejoin="round"
    stroke-opacity="0.95"
  />
  <circle cx="64" cy="64" r="23" fill="none" stroke="#9feccb" stroke-opacity="0.6" stroke-width="3.5" />

  <path
    d="M50 40v48M50 40h22c11 0 17 5 17 14s-6 14-17 14H50"
    fill="none"
    stroke="#f3fff7"
    stroke-width="8"
    stroke-linecap="round"
    stroke-linejoin="round"
  />
  <circle cx="90" cy="93" r="4.5" fill="#d8ff8f" />
</svg>
